<svg width="25" height="25" viewBox="0 0 25 25" fill="none" xmlns="http://www.w3.org/2000/svg">
<g clip-path="url(#clip0_16_413)">
<path d="M21.6447 6.75506C23.4977 6.75506 25.0001 5.25289 25.0001 3.39969C25.0001 1.54669 23.4977 0.0443115 21.6447 0.0443115C19.7915 0.0443115 18.2893 1.54669 18.2893 3.39969C18.2914 5.25207 19.7923 6.75302 21.6447 6.75506ZM21.6447 0.883156C23.0344 0.883156 24.1612 2.00994 24.1612 3.39969C24.1612 4.78964 23.0344 5.91622 21.6447 5.91622C20.2547 5.91622 19.1282 4.78964 19.1282 3.39969C19.1294 2.01056 20.2553 0.884589 21.6447 0.883156Z" fill="#F34E3A"/>
<path d="M7.32437 9.86467C7.81506 9.86549 8.28609 9.67093 8.63301 9.3236L12.4174 5.53876L14.9436 8.06492C15.6661 8.78744 16.8373 8.78744 17.5599 8.06492L17.5625 8.06246C18.283 7.33953 18.283 6.16994 17.5625 5.44701L13.9 1.78547C13.0812 0.966693 11.7537 0.966693 10.9347 1.78547L6.01408 6.70569C5.4853 7.23529 5.32761 8.03133 5.61432 8.72273C5.90124 9.41391 6.57584 9.86467 7.32437 9.86467ZM6.60717 7.30042L11.5278 2.37835C12.0191 1.88725 12.8156 1.88725 13.3071 2.37835L16.9694 6.04215C17.3631 6.4372 17.3631 7.07637 16.9694 7.47142L16.9668 7.47409C16.5715 7.86811 15.9319 7.86811 15.5367 7.47409L12.714 4.65097C12.5501 4.48714 12.2847 4.48714 12.1209 4.65097L8.03952 8.73051C7.63873 9.11409 7.00652 9.11307 6.60717 8.72805C6.21458 8.3332 6.21458 7.69526 6.60717 7.30042Z" fill="#F34E3A"/>
<path d="M23.3224 10.9493H19.1282V8.85215C19.1282 8.68258 19.026 8.5298 18.8691 8.46488C18.7125 8.39996 18.532 8.4358 18.4122 8.5556L15.8957 11.0721C15.8171 11.1508 15.7728 11.2575 15.7728 11.3687V13.0464C15.7728 13.7414 16.336 14.3046 17.0311 14.3046H23.3224C24.2489 14.3046 25.0001 13.5536 25.0001 12.6269C25.0001 11.7005 24.2489 10.9493 23.3224 10.9493ZM23.3224 13.4658H17.0311C16.7995 13.4658 16.6117 13.278 16.6117 13.0464V11.5423L18.2894 9.86466V11.3687C18.2894 11.6003 18.4772 11.7881 18.7088 11.7881H23.3224C23.7857 11.7881 24.1613 12.1637 24.1613 12.6269C24.1613 13.0904 23.7857 13.4658 23.3224 13.4658Z" fill="#F34E3A"/>
<path d="M10.6256 16.4438L8.60061 14.4187C8.43411 14.2615 8.17382 14.2615 8.00752 14.4187L0.54189 21.8846C-0.18063 22.6069 -0.18063 23.7781 0.54189 24.5004V24.5025C1.26462 25.224 2.43502 25.224 3.15775 24.5025L10.6234 17.0369C10.7878 16.8736 10.7887 16.6082 10.6256 16.4438ZM2.56589 23.9096C2.17104 24.3036 1.53146 24.3036 1.13662 23.9096H1.13498C0.739928 23.515 0.739928 22.8748 1.13498 22.4801L8.30366 15.3084L9.73559 16.7407L2.56589 23.9096Z" fill="#F34E3A"/>
<path d="M12.8082 12.0767C12.3429 11.5975 11.6552 11.406 11.009 11.5755C10.3627 11.7453 9.85807 12.2499 9.68809 12.8963C9.51831 13.5424 9.70959 14.2301 10.189 14.6956L13.466 17.9717L9.4923 20.0893C8.60861 20.5941 8.30019 21.7191 8.80317 22.6038L8.86276 22.7138C9.19535 23.2891 9.80953 23.6434 10.4741 23.6431C10.7917 23.6436 11.1038 23.5606 11.3793 23.4025L16.5524 20.6204L17.2236 20.2349C17.7902 19.9103 18.1734 19.34 18.2598 18.6924C18.346 18.0451 18.1257 17.3942 17.6639 16.9324L12.8082 12.0767ZM17.4281 18.5828C17.3772 18.9707 17.1472 19.3123 16.807 19.5057L10.9715 22.6689C10.4901 22.9448 9.87609 22.7824 9.59429 22.3044L9.53429 22.1944C9.25966 21.7152 9.42103 21.1043 9.89657 20.8233L14.3597 18.4456C14.477 18.3832 14.5577 18.2687 14.5772 18.1372C14.5966 18.0057 14.5528 17.8728 14.4586 17.7788L10.7817 14.1025C10.3858 13.7067 10.3858 13.0648 10.7817 12.669C11.1776 12.2731 11.8194 12.2731 12.2153 12.669L17.073 17.5255C17.3511 17.8024 17.4826 18.1941 17.4281 18.5828Z" fill="#F34E3A"/>
</g>
<defs>
<clipPath id="clip0_16_413">
<rect width="25" height="25" fill="white"/>
</clipPath>
</defs>
</svg>
