<svg width="22" height="22" viewBox="0 0 22 22" fill="none" xmlns="http://www.w3.org/2000/svg">
<path d="M16.5001 0.96875L13.2031 4.26553L14.297 5.35943L15.7266 3.92981V18.0702L14.297 16.6406L13.2031 17.7345L16.5001 21.0313L19.797 17.7345L18.7031 16.6406L17.2735 18.0702V3.92981L18.7031 5.35947L19.7971 4.26553L16.5001 0.96875ZM6.08259 0.979836C5.07858 1.11025 4.1682 2.28798 4.1682 3.81298C4.1682 4.65336 4.45914 5.39664 4.88556 5.9105L5.39431 6.52336L4.61155 6.67049C4.05725 6.77469 3.65085 7.06752 3.30345 7.5443C2.95605 8.02113 2.69046 8.68547 2.50432 9.45104C2.16732 10.8381 2.09319 12.5316 2.08142 14.0245H3.92341L4.42919 20.8065C5.7137 21.0964 7.08513 21.0862 8.32225 20.8076L8.76972 14.0245H10.5235C10.5224 12.5133 10.503 10.7964 10.1977 9.39888C10.0293 8.62832 9.77407 7.96496 9.4225 7.49356C9.0708 7.02219 8.64563 6.73107 8.02331 6.63465L7.22444 6.5109L7.72872 5.87909C8.13671 5.36789 8.4133 4.63312 8.4133 3.81307C8.4133 2.18721 7.39687 0.983832 6.29068 0.983832L6.08259 0.979836Z" fill="#F34E3A"/>
</svg>
