<svg width="24" height="24" viewBox="0 0 24 24" fill="none" xmlns="http://www.w3.org/2000/svg">
<path d="M12.0002 5.33333L10.896 8.66667M17 5.33333C18.5531 5.33333 19.3297 5.33333 19.9423 5.58707C20.759 5.92538 21.408 6.5743 21.7462 7.39106C22 8.00362 22 8.7802 22 10.3333V16.6667C22 18.5336 22 19.4669 21.6367 20.18C21.3171 20.8072 20.8072 21.3171 20.18 21.6367C19.4669 22 18.5336 22 16.6667 22H7.33333C5.46649 22 4.53307 22 3.82003 21.6367C3.19282 21.3171 2.68289 20.8072 2.36331 20.18C2 19.4669 2 18.5336 2 16.6667V10.3333C2 8.7802 2 8.00362 2.25373 7.39106C2.59204 6.5743 3.24097 5.92538 4.05772 5.58707C4.67029 5.33333 5.44687 5.33333 7 5.33333M9.77778 17.5556H14.2222M10.3794 2H13.6209C14.8219 2 15.4224 2 15.8669 2.20601C16.4596 2.48069 16.9013 3.00221 17.0749 3.63198C17.205 4.1043 17.1063 4.69664 16.9089 5.88133C16.7624 6.75973 16.6892 7.19893 16.4943 7.54198C16.2346 7.99938 15.8209 8.34979 15.327 8.53087C14.9567 8.66667 14.5113 8.66667 13.6209 8.66667H10.3794C9.48896 8.66667 9.0437 8.66667 8.67329 8.53087C8.1794 8.34979 7.76576 7.99938 7.50596 7.54198C7.3111 7.19893 7.2379 6.75973 7.0915 5.88133C6.89406 4.69664 6.79533 4.1043 6.92546 3.63198C7.09896 3.00221 7.54077 2.48069 8.13343 2.20601C8.57793 2 9.17846 2 10.3794 2Z" stroke="#F34E3A" stroke-width="1.5" stroke-linecap="round" stroke-linejoin="round"/>
</svg>
