<svg width="34" height="34" viewBox="0 0 34 34" fill="none" xmlns="http://www.w3.org/2000/svg">
<path d="M31.343 0H2.54005C1.13722 0 0 1.13794 0 2.54165V31.3628C0 32.7665 1.13722 33.9044 2.54005 33.9044H31.343C32.7458 33.9044 33.8831 32.7665 33.8831 31.3628V2.54165C33.8831 1.13794 32.7458 0 31.343 0Z" fill="#EEEEEE"/>
<path d="M27.3957 8.4922C24.4094 7.41028 21.4146 6.33695 18.4326 5.24644C17.39 4.86433 16.3688 4.8858 15.3262 5.26791C12.5716 6.28543 9.81702 7.29865 7.05386 8.299C4.73692 9.1362 4.07188 10.2696 4.50094 12.661C5.04156 15.7007 5.59934 18.7404 6.0756 21.7886C6.37594 23.6992 7.29843 25.0086 9.10907 25.7514C10.5378 26.3353 11.898 27.078 13.3139 27.692C14.4681 28.1943 15.5278 28.9843 16.9266 28.9284C17.5616 28.9628 18.2009 28.7954 18.8145 28.5077C21.007 27.4816 23.2123 26.4727 25.3877 25.4122C26.5977 24.8197 27.3399 23.858 27.5759 22.4799C28.1723 19.0194 28.8159 15.5676 29.4509 12.1115C29.7384 10.5401 28.8888 9.02886 27.3957 8.48361V8.4922ZM18.5785 23.858C18.5785 24.5235 18.5785 25.1847 18.5785 25.8501C18.5656 26.7689 17.2698 27.5159 16.4761 27.0694C16.2015 26.9149 16.2658 26.6573 16.2615 26.4297C16.253 25.3135 16.2487 24.1972 16.2615 23.0809C16.2701 21.8616 17.1626 21.0588 18.3468 21.1919C18.6772 21.2305 18.5699 21.5053 18.5742 21.6856C18.5913 22.4112 18.5828 23.1325 18.5828 23.858H18.5785ZM17.0339 18.676C15.3047 18.7146 13.5799 18.633 11.8808 18.2724C11.4303 18.1779 10.9798 18.0663 10.9369 17.4695C10.8897 16.8213 10.8897 16.4692 11.8165 16.6109C15.5536 17.169 19.2993 17.1733 23.0279 16.4048C23.2982 16.349 23.7573 15.8553 23.9031 16.4735C24.0147 16.9586 24.1434 17.5597 23.3926 17.8259C22.0367 18.3025 20.6508 18.5987 19.2221 18.6717C18.497 18.7103 17.7675 18.6803 17.0381 18.6803L17.0339 18.676ZM21.1829 14.9021C19.9601 15.1426 18.7372 15.3443 17.4887 15.3615C16.2143 15.3787 14.9486 15.3358 13.6829 15.1297C12.8376 14.9923 12.3485 14.6145 12.3442 13.6399C15.3519 14.1122 18.3082 14.1723 21.2558 13.6056C21.5562 13.5454 21.7235 13.5755 21.7106 13.9276C21.6978 14.344 21.8093 14.7776 21.1829 14.8978V14.9021ZM27.5974 11.9784C27.031 15.3229 26.4561 18.6631 25.8725 22.0033C25.7352 22.789 25.3662 23.4287 24.6154 23.7893C23.2209 24.4505 21.8136 25.0859 20.4277 25.7686C19.7756 26.0906 19.6683 25.8372 19.6897 25.2405C19.7198 24.4806 19.6983 23.7249 19.6983 22.965C19.6983 22.2051 19.7369 21.4452 19.6855 20.6938C19.6426 20.0885 19.9214 19.9082 20.4535 19.8481C21.5648 19.715 22.6632 19.5175 23.6929 19.0323C24.4566 18.6717 24.8685 18.1307 24.7913 17.242C24.7441 16.671 24.7312 16.0871 24.7913 15.5161C24.8986 14.4857 24.3751 13.9619 23.4526 13.8073C22.7575 13.6871 22.4744 13.3823 22.5516 12.6696C22.6117 12.1244 22.2984 11.738 21.805 11.5362C20.8868 11.1584 19.9 11.2313 18.9389 11.1283C18.66 11.0982 18.6257 11.3086 18.5527 11.5233C18.2696 12.3433 17.5401 12.1673 16.9395 12.163C16.3388 12.1587 15.5879 12.3304 15.3863 11.4546C15.3133 11.124 15.1288 11.0854 14.8714 11.1111C13.9661 11.197 13.0522 11.1798 12.164 11.416C11.4732 11.6006 11.0227 11.9998 11.1085 12.7769C11.1771 13.3608 10.9669 13.6227 10.3705 13.7601C8.99751 14.0864 8.83018 14.3569 8.82589 15.7737C8.82589 16.0785 8.82589 16.379 8.82589 16.6839C8.82589 18.4699 9.26782 19.0409 11.0184 19.4445C11.8122 19.6291 12.6188 19.7794 13.4254 19.891C13.9017 19.9597 14.0819 20.1443 14.0733 20.6423C14.0433 22.218 14.0476 23.7979 14.0733 25.3736C14.0776 25.8931 13.936 26.0262 13.4555 25.7986C12.0095 25.1031 10.5464 24.4419 9.10907 23.7292C8.51696 23.433 8.15655 22.935 8.03641 22.2437C7.44002 18.8091 6.81359 15.3873 6.20003 11.9569C6.0284 10.9866 6.31587 10.4714 7.23836 10.1322C10.1388 9.07609 13.0479 8.0371 15.9483 6.98524C16.6391 6.73193 17.3085 6.77916 17.9907 7.02388C20.8353 8.05857 23.6843 9.08038 26.5247 10.1194C27.5416 10.4886 27.7776 10.9093 27.5931 11.9956L27.5974 11.9784Z" fill="url(#paint0_linear_10_73)"/>
<path d="M18.3596 10.6732C18.3682 11.3344 17.5186 11.1369 17.0209 11.1669C16.4974 11.197 15.5921 11.2657 15.605 10.7591C15.6222 10.0077 16.5361 10.4628 16.9651 10.2524C17.51 10.377 18.3553 10.1408 18.3596 10.6732Z" fill="url(#paint1_linear_10_73)"/>
<defs>
<linearGradient id="paint0_linear_10_73" x1="29.7169" y1="16.9543" x2="6.02411" y2="16.9543" gradientUnits="userSpaceOnUse">
<stop stop-color="#1D1616"/>
<stop offset="1" stop-color="#8E1616"/>
</linearGradient>
<linearGradient id="paint1_linear_10_73" x1="29.7169" y1="10.7204" x2="6.02403" y2="10.7204" gradientUnits="userSpaceOnUse">
<stop stop-color="#1D1616"/>
<stop offset="1" stop-color="#8E1616"/>
</linearGradient>
</defs>
</svg>
