<svg width="22" height="24" viewBox="0 0 22 24" fill="none" xmlns="http://www.w3.org/2000/svg">
<path d="M17.0471 15.4935C17.1256 15.3023 17.0383 15.0825 16.8513 15.0023C16.6658 14.9243 16.4494 15.0113 16.371 15.2025C15.8393 16.4918 14.6146 17.3243 13.2521 17.3243C12.5019 17.3243 11.7913 17.0775 11.198 16.6118C11.0374 16.4843 10.8072 16.5173 10.684 16.6808C10.5608 16.8458 10.5908 17.0805 10.7514 17.2065C11.4745 17.7743 12.3398 18.0743 13.2528 18.0743C14.9109 18.0743 16.4003 17.061 17.0471 15.4935Z" fill="#F34E3A"/>
<path d="M15.9507 3.29553C15.873 3.21903 14.0081 1.41078 11.6681 0.618779L11.3498 0.470279C9.27007 -0.50097 6.79653 0.0787795 5.335 1.88028C5.11133 2.15553 5.0072 2.50428 5.04093 2.86128C5.07467 3.21828 5.24187 3.53928 5.51247 3.76578C5.55133 3.79803 5.5682 3.85203 5.55427 3.90153C5.53007 3.98853 5.51833 4.07703 5.52053 4.16478C5.566 5.97078 6.98207 7.38528 8.72887 7.38528C9.23633 7.37328 10.2879 7.07628 10.7008 5.67603C10.7998 5.33853 10.8849 5.10903 10.9523 4.95453C11.1041 7.20678 12.3039 9.26103 13.3958 10.692C13.2242 10.665 13.0497 10.6515 12.8737 10.6515C11.4847 10.6515 10.2403 11.4975 9.68147 12.7658C8.54333 11.877 7.15293 11.394 5.7112 11.394C4.33987 11.394 2.99787 11.8388 1.88907 12.6548C1.53267 12.1733 0.9724 11.8808 0.366667 11.8808C0.164267 11.8808 0 12.0488 0 12.2558C0 12.4628 0.164267 12.6308 0.366667 12.6308C0.836 12.6308 1.26133 12.9165 1.4498 13.359C1.49527 13.4678 1.5884 13.5465 1.7006 13.5743C1.81207 13.6005 1.93013 13.5743 2.0196 13.4985C3.058 12.6255 4.3692 12.144 5.7134 12.144C7.15293 12.144 8.53527 12.6878 9.60593 13.6733C9.70053 13.761 9.834 13.791 9.955 13.7543C10.0775 13.7175 10.1721 13.6185 10.2051 13.4925C10.5329 12.261 11.6307 11.4008 12.8759 11.4008C13.4097 11.4008 13.9223 11.5583 14.3594 11.8433C14.8383 12.3683 15.1859 12.6833 15.2335 12.726C15.3714 12.8498 15.5789 12.849 15.7175 12.7253C15.8554 12.6008 15.8825 12.3908 15.7791 12.2348C15.5298 11.8553 15.2167 11.5343 14.8603 11.283C13.7023 9.99228 11.7715 7.43253 11.6666 4.62828C11.6461 4.53753 11.5859 4.33128 11.4605 4.16553C11.4378 4.04103 11.3593 3.92928 11.2347 3.88203C11.1694 3.85728 9.6206 3.28428 8.0806 4.24578C7.90827 4.35378 7.85327 4.58403 7.95887 4.76178C8.0278 4.87728 8.1488 4.94103 8.272 4.94103C8.33727 4.94103 8.40327 4.92378 8.46267 4.88628C9.16887 4.44528 9.88387 4.41378 10.3723 4.46478C10.2476 4.70478 10.1266 5.02953 10.0005 5.45853C9.65873 6.61728 8.85427 6.62103 8.74573 6.63453C7.38467 6.63453 6.2898 5.54103 6.26047 4.10553C6.3536 3.76878 6.2436 3.40728 5.97813 3.18453C5.85933 3.08553 5.786 2.94453 5.77133 2.78853C5.75593 2.63253 5.80213 2.47953 5.89967 2.35878C7.15073 0.81603 9.26567 0.318779 11.0455 1.15278L11.4004 1.31628C13.6165 2.06853 15.4264 3.82053 15.4337 3.82728C20.7013 9.43503 21.2131 14.5815 21.2623 15.4928C18.8863 18.0323 15.5687 19.4858 12.1359 19.4858C10.5519 19.4858 9.00753 19.1888 7.546 18.6038C7.4338 18.5588 7.3062 18.6225 7.2072 18.6938C7.10673 18.7635 7.04807 18.9293 7.04807 19.053C7.0466 21.3668 5.2118 23.25 2.9568 23.25C2.7544 23.25 2.59013 23.418 2.59013 23.625C2.59013 23.832 2.7544 24 2.9568 24C5.47507 24 7.5482 22.011 7.76233 19.4843C9.1652 19.983 10.6341 20.235 12.1352 20.235C15.8209 20.235 19.3805 18.6518 21.901 15.891C21.9641 15.822 22 15.732 22 15.6375C22.0015 15.3975 21.9633 9.69603 15.9507 3.29553Z" fill="#F34E3A"/>
</svg>
